<svg width="115" height="115" viewBox="0 0 115 115" fill="none" xmlns="http://www.w3.org/2000/svg">
<circle cx="57.5" cy="57.5" r="57.5" fill="white"/>
<path d="M57.061 36.8701C45.9071 36.8701 36.8701 45.9071 36.8701 57.061C36.8701 68.2148 45.9071 77.2518 57.061 77.2518C68.2148 77.2518 77.2518 68.2148 77.2518 57.061C77.2518 45.9071 68.2148 36.8701 57.061 36.8701ZM64.591 62.3529L62.9627 64.3883C62.8558 64.5219 62.7237 64.6331 62.5739 64.7156C62.424 64.7982 62.2594 64.8504 62.0894 64.8693C61.9193 64.8882 61.7472 64.8734 61.5829 64.8258C61.4186 64.7782 61.2653 64.6987 61.1317 64.5918L55.6769 60.5439C55.2958 60.2387 54.9881 59.8518 54.7767 59.4117C54.5653 58.9716 54.4556 58.4895 54.4557 58.0013V45.3372C54.4557 44.9918 54.5929 44.6604 54.8372 44.4161C55.0815 44.1719 55.4128 44.0346 55.7583 44.0346H58.3636C58.7091 44.0346 59.0404 44.1719 59.2847 44.4161C59.529 44.6604 59.6662 44.9918 59.6662 45.3372V57.061L64.3883 60.5211C64.5219 60.628 64.6332 60.7602 64.7157 60.9102C64.7983 61.0601 64.8504 61.2249 64.8693 61.395C64.8881 61.5651 64.8732 61.7373 64.8255 61.9016C64.7777 62.066 64.698 62.2193 64.591 62.3529Z" fill="#FFCC00"/>
</svg>
